# xmcd
#
# Track frame offsets:
#	150
#	10227
#	24950
#	36594
#
# Disc length: 622 seconds
#
# Revision: 1
# Processed by: cddbd v1.5.1PL0 Copyright (c) Steve Scherf et al.
# Submitted via: CDex 1.50Beta5
#
DISCID=27026c04
DTITLE=ケダマ - Oh!体操
DYEAR=2003
DGENRE=Pop
TTITLE0=Oh!体操
TTITLE1=空はくるくる
TTITLE2=おやすみ
TTITLE3=Oh!体操のカラオケ
EXTD=
EXTT0=
EXTT1=
EXTT2=
EXTT3=
PLAYORDER=
